<svg width="40" height="40" viewBox="0 0 40 40" fill="none" xmlns="http://www.w3.org/2000/svg">
<path d="M26.5 20.498H21.5V25.498C21.5 25.7632 21.3946 26.0176 21.2071 26.2051C21.0196 26.3926 20.7652 26.498 20.5 26.498C20.2348 26.498 19.9804 26.3926 19.7929 26.2051C19.6054 26.0176 19.5 25.7632 19.5 25.498V20.498H14.5C14.2348 20.498 13.9804 20.3926 13.7929 20.2051C13.6054 20.0176 13.5 19.7632 13.5 19.498C13.5 19.2328 13.6054 18.9784 13.7929 18.7909C13.9804 18.6034 14.2348 18.498 14.5 18.498H19.5V13.498C19.5 13.2328 19.6054 12.9784 19.7929 12.7909C19.9804 12.6034 20.2348 12.498 20.5 12.498C20.7652 12.498 21.0196 12.6034 21.2071 12.7909C21.3946 12.9784 21.5 13.2328 21.5 13.498V18.498H26.5C26.7652 18.498 27.0196 18.6034 27.2071 18.7909C27.3946 18.9784 27.5 19.2328 27.5 19.498C27.5 19.7632 27.3946 20.0176 27.2071 20.2051C27.0196 20.3926 26.7652 20.498 26.5 20.498Z" fill="#12C2E9"/>
</svg>
